<svg width="20" height="23" viewBox="0 0 20 23" fill="none" xmlns="http://www.w3.org/2000/svg">
<path d="M10.0046 18.2083C14.5354 18.2083 18.2083 14.5354 18.2083 10.0046C18.2083 5.47374 14.5354 1.80078 10.0046 1.80078C5.47374 1.80078 1.80078 5.47374 1.80078 10.0046C1.80078 14.5354 5.47374 18.2083 10.0046 18.2083Z" fill="white"/>
<path d="M17.0709 2.92887C15.1822 1.04017 12.671 0 9.99991 0C7.32883 0 4.81761 1.04017 2.92891 2.92887C1.04017 4.81766 0 7.32883 0 9.99991C0 14.7122 3.29439 18.7805 7.87103 19.7719L9.99991 22.6104L12.1288 19.7719C16.7054 18.7804 19.9998 14.7122 19.9998 9.99991C19.9998 7.32883 18.9596 4.81766 17.0709 2.92887V2.92887ZM9.99991 2.6106C14.05 2.6106 17.345 5.90561 17.345 9.95566C17.345 14.0057 14.05 17.3007 9.99991 17.3007C5.94981 17.3007 2.65484 14.0057 2.65484 9.95566C2.65484 5.90561 5.94981 2.6106 9.99991 2.6106V2.6106Z" fill="#0BDD64"/>
<path d="M8.34701 7.93316L6.19941 8.92156C6.06001 8.98571 5.9707 9.12513 5.9707 9.27857C5.9707 9.56052 6.25881 9.75075 6.5181 9.64L9.15493 8.51369C9.72771 8.26903 10.3755 8.26866 10.9486 8.51266L13.5982 9.64081C13.8575 9.75124 14.1454 9.56092 14.1454 9.27903C14.1454 9.12534 14.0559 8.98573 13.9162 8.92164L11.757 7.9311C10.6744 7.43445 9.42898 7.4352 8.34701 7.93316Z" fill="#0BDD64"/>
<path fill-rule="evenodd" clip-rule="evenodd" d="M6.72927 10.0927C7.01858 9.93241 7.33838 9.83091 7.66823 9.7927C7.93024 9.76235 8.12937 9.99622 8.10865 10.2592V10.2592C8.0882 10.5188 7.85785 10.7059 7.6049 10.768C7.47773 10.7992 7.35502 10.847 7.24045 10.9105C6.98954 11.0495 6.78967 11.2573 6.66755 11.5062C6.54544 11.755 6.50688 12.033 6.55704 12.303C6.6072 12.573 6.74369 12.8222 6.94827 13.0173C7.15285 13.2123 7.41577 13.3439 7.70191 13.3945C7.98805 13.4451 8.28378 13.4123 8.54957 13.3004C8.81537 13.1885 9.03857 13.003 9.18937 12.7685C9.31595 12.5717 9.38644 12.3482 9.39522 12.1197C9.39801 12.0472 9.45243 11.9848 9.52484 11.9806L9.62847 11.9745C9.63594 11.9741 9.64188 11.9681 9.64231 11.9607V11.9607C9.64279 11.9526 9.64971 11.9465 9.65776 11.947L9.88067 11.9599L10.3678 11.9316C10.3853 11.9306 10.4003 11.9439 10.4012 11.9613V11.9613C10.402 11.9777 10.415 11.9909 10.4313 11.9919L10.5195 11.997C10.5909 12.0011 10.6446 12.0628 10.6473 12.1343C10.6558 12.3634 10.7263 12.5875 10.8532 12.7848C11.004 13.0193 11.2272 13.2049 11.493 13.3167C11.7588 13.4286 12.0545 13.4614 12.3407 13.4108C12.6268 13.3602 12.8897 13.2286 13.0943 13.0336C13.2989 12.8385 13.4354 12.5894 13.4855 12.3194C13.5357 12.0493 13.4971 11.7713 13.375 11.5225C13.2529 11.2737 13.053 11.0658 12.8021 10.9268C12.6876 10.8633 12.5648 10.8156 12.4377 10.7843C12.1847 10.7222 11.9544 10.5351 11.9339 10.2755V10.2755C11.9132 10.0125 12.1123 9.77867 12.3743 9.80902C12.7042 9.84723 13.024 9.94873 13.3133 10.109C13.741 10.3461 14.0817 10.7003 14.2899 11.1245C14.4981 11.5487 14.5638 12.0226 14.4783 12.4828C14.3928 12.9431 14.1601 13.3679 13.8114 13.7003C13.4626 14.0328 13.0144 14.2571 12.5267 14.3434C12.0389 14.4296 11.5348 14.3737 11.0817 14.183C11.0757 14.1804 11.0696 14.1779 11.0636 14.1753C10.4582 13.9149 9.56819 13.9111 8.96085 14.1667V14.1667C8.50776 14.3574 8.00366 14.4133 7.51589 14.3271C7.02813 14.2408 6.57993 14.0165 6.2312 13.684C5.88247 13.3516 5.6498 12.9268 5.56429 12.4665C5.47879 12.0062 5.54451 11.5323 5.75268 11.1082C5.96085 10.684 6.30155 10.3297 6.72927 10.0927Z" fill="#0BDD64"/>
<path d="M11.2427 10.8329C11.4356 10.8423 11.5849 11.0138 11.5177 11.1948C11.434 11.4202 11.2912 11.6243 11.1 11.7869C10.815 12.0291 10.4436 12.1613 10.0597 12.157C9.6758 12.1527 9.30774 12.0124 9.02895 11.7639C8.75017 11.5154 8.58115 11.177 8.55562 10.8164C8.5301 10.4557 8.64995 10.0993 8.89126 9.81814C9.13257 9.53701 9.47759 9.35189 9.85747 9.29972C10.2374 9.24754 10.6242 9.33214 10.9407 9.53664C11.1276 9.6574 11.2819 9.81472 11.3945 9.99589C11.5137 10.1878 11.3479 10.403 11.1219 10.403V10.403C10.9606 10.403 10.8391 10.2741 10.7229 10.1622C10.6813 10.1221 10.6277 10.0857 10.5563 10.0396C10.3808 9.92613 10.1662 9.90376 9.95555 9.9327C9.74486 9.96164 9.55351 10.0643 9.41968 10.2202C9.28585 10.3761 9.21938 10.5738 9.23354 10.7738C9.24769 10.9739 9.34143 11.1615 9.49605 11.2993C9.65067 11.4371 9.85479 11.515 10.0677 11.5174C10.2806 11.5197 10.4866 11.4464 10.6446 11.3121C10.7138 11.2533 10.7715 11.1895 10.8162 11.1195C10.9134 10.9672 11.0622 10.8241 11.2427 10.8329V10.8329Z" fill="#0BDD64"/>
<ellipse cx="10.1033" cy="10.7207" rx="0.456323" ry="0.429638" fill="#0BDD64"/>
<path d="M8.80217 5.71433H8.48443V6.51304H7.89746V4.25056H8.85568C9.14443 4.25056 9.37019 4.31013 9.53295 4.42926C9.69572 4.54839 9.77711 4.71673 9.77711 4.93428C9.77711 5.09174 9.74255 5.22227 9.67343 5.32586C9.60542 5.42945 9.49839 5.51336 9.35235 5.57759L9.86072 6.48973V6.51304H9.23194L8.80217 5.71433ZM8.48443 5.29323H8.85568C8.96717 5.29323 9.05078 5.26629 9.10652 5.21242C9.16338 5.15752 9.19181 5.08138 9.19181 4.984C9.19181 4.88662 9.16338 4.81048 9.10652 4.75558C9.04966 4.69964 8.96605 4.67167 8.85568 4.67167H8.48443V5.29323Z" fill="#0BDD64"/>
<path d="M12.1936 5.42842C12.1936 5.64907 12.1495 5.84434 12.0614 6.01424C11.9734 6.18413 11.848 6.31518 11.6852 6.40737C11.5235 6.49854 11.339 6.54412 11.1317 6.54412C10.9243 6.54412 10.7403 6.50009 10.5798 6.41204C10.4193 6.32294 10.2938 6.19604 10.2035 6.03133C10.1144 5.86662 10.0675 5.67756 10.0631 5.46416V5.33674C10.0631 5.11505 10.1065 4.91977 10.1935 4.75092C10.2816 4.58102 10.407 4.44998 10.5698 4.35778C10.7337 4.26558 10.9198 4.21948 11.1283 4.21948C11.3346 4.21948 11.5185 4.26506 11.6802 4.35623C11.8418 4.44739 11.9672 4.5774 12.0564 4.74625C12.1467 4.91408 12.1924 5.10676 12.1936 5.32431V5.42842ZM11.5966 5.33363C11.5966 5.10883 11.5559 4.93842 11.4745 4.8224C11.3942 4.70534 11.2788 4.6468 11.1283 4.6468C10.834 4.6468 10.6785 4.85192 10.6617 5.26215L10.6601 5.42842C10.6601 5.65011 10.6997 5.82052 10.7788 5.93965C10.858 6.05878 10.9756 6.11835 11.1317 6.11835C11.2799 6.11835 11.3942 6.05982 11.4745 5.94276C11.5547 5.8257 11.5954 5.65736 11.5966 5.43774V5.33363Z" fill="#0BDD64"/>
</svg>
