<svg width="20" height="23" viewBox="0 0 20 23" fill="none" xmlns="http://www.w3.org/2000/svg">
<path d="M9.9958 18.1065C14.2764 18.1065 17.7465 14.5766 17.7465 10.2223C17.7465 5.86799 14.2764 2.33813 9.9958 2.33813C5.71522 2.33813 2.24512 5.86799 2.24512 10.2223C2.24512 14.5766 5.71522 18.1065 9.9958 18.1065Z" fill="white"/>
<path d="M17.0711 2.97933C15.1823 1.05809 12.6711 0 10 0C7.32889 0 4.81765 1.05809 2.92894 2.97933C1.04018 4.90067 0 7.45511 0 10.1722C0 14.9657 3.29442 19.1041 7.87111 20.1126L10 23L12.1289 20.1125C16.7056 19.104 20 14.9657 20 10.1722C20 7.45511 18.9598 4.90067 17.0711 2.97933V2.97933ZM10 2.65558C14.0501 2.65558 17.3451 6.00737 17.3451 10.1272C17.3451 14.247 14.0501 17.5988 10 17.5988C5.94987 17.5988 2.65487 14.247 2.65487 10.1272C2.65487 6.00737 5.94987 2.65558 10 2.65558V2.65558Z" fill="#954D0A"/>
<path d="M10.4369 5C8.77502 5 7.17198 5.70971 6.0385 6.94685C6.01388 6.97378 6 7.0093 6 7.04614L6.00029 13.8806C6.00029 13.9609 6.0644 14.0261 6.1434 14.0261H14.7304C14.8094 14.0261 14.8735 13.9609 14.8735 13.8806L14.8736 7.04628C14.8736 7.00945 14.8599 6.97393 14.8351 6.947C13.7016 5.70971 12.0986 5 10.4369 5V5ZM14.3872 6.90056H6.48645C7.54623 5.87392 8.96737 5.29116 10.4369 5.29116C11.9063 5.29116 13.3274 5.87392 14.3872 6.90056ZM13.1561 9.51315H7.71768V9.22199H13.1561V9.51315ZM8.29014 10.5322H8.57638V10.8234H8.29014V10.5322ZM8.14703 11.1144H8.71949C8.79864 11.1144 8.86261 11.0493 8.86261 10.9688V10.5321H9.14884V11.9879H7.71768V10.5322H8.00391V10.969C8.00391 11.0493 8.06788 11.1144 8.14703 11.1144ZM8.29014 12.2792H8.57638V12.5703H8.29014V12.2792ZM7.71768 12.2792H8.00391V12.7159C8.00391 12.7964 8.06788 12.8615 8.14703 12.8615H8.71949C8.79864 12.8615 8.86261 12.7964 8.86261 12.7159V12.2792H9.14884V13.735H7.71768V12.2792ZM10.0075 12.2792H10.2938V12.5703H10.0075V12.2792ZM9.86442 12.8614H10.4369C10.516 12.8614 10.58 12.7963 10.58 12.7158V12.279H10.8662V13.7348H9.43507V12.2792H9.7213V12.7159C9.7213 12.7963 9.78528 12.8614 9.86442 12.8614ZM11.0093 11.988H9.43507V10.3866C9.43507 10.3061 9.3711 10.2411 9.29196 10.2411H7.71768V9.80431H13.1561V13.735H11.1525V12.1336C11.1525 12.0531 11.0883 11.988 11.0093 11.988ZM7.43145 8.34836V7.91161C7.43145 7.83125 7.49556 7.76603 7.57456 7.76603H13.2992C13.3782 7.76603 13.4423 7.83125 13.4423 7.91161V8.34836H7.43145ZM13.1561 8.63952V8.93068H7.71768V8.63952H13.1561ZM13.4423 13.735V9.0764V8.63966H13.5854C13.6646 8.63966 13.7286 8.57459 13.7286 8.49408V7.91176C13.7286 7.67097 13.5359 7.47502 13.2992 7.47502H7.57456C7.33785 7.47502 7.14521 7.67097 7.14521 7.91176V8.49408C7.14521 8.57459 7.20919 8.63966 7.28833 8.63966H7.43145V9.0764V10.3866V12.1336V13.735H6.28652V7.19186H14.5873V9.80431H13.8717C13.7925 9.80431 13.7286 9.86938 13.7286 9.94989V11.4057C13.7286 11.4862 13.7925 11.5513 13.8717 11.5513H14.5873V13.735H13.4423ZM14.5873 10.8232V11.26H14.0148V10.0953H14.5873V10.5321H14.301V10.8232H14.5873Z" fill="#864808"/>
</svg>
