<svg width="20" height="23" viewBox="0 0 20 23" fill="none" xmlns="http://www.w3.org/2000/svg">
<path d="M10.1163 17.5078C14.4311 17.5078 17.9289 14.0099 17.9289 9.69516C17.9289 5.38038 14.4311 1.88257 10.1163 1.88257C5.80153 1.88257 2.30371 5.38038 2.30371 9.69516C2.30371 14.0099 5.80153 17.5078 10.1163 17.5078Z" fill="white"/>
<path d="M8.27126 8.34747L6.25978 9.33072C6.12113 9.39849 6.0332 9.53934 6.0332 9.69366C6.0332 9.98735 6.33664 10.1829 6.6041 10.0616L9.11995 8.92018C9.69261 8.66038 10.3495 8.65998 10.9224 8.9191L13.4507 10.0624C13.7182 10.1834 14.0214 9.98779 14.0214 9.69415C14.0214 9.53956 13.9333 9.3985 13.7943 9.33079L11.7717 8.34527C10.6668 7.80689 9.37548 7.80771 8.27126 8.34747Z" fill="#7C00F8"/>
<path fill-rule="evenodd" clip-rule="evenodd" d="M6.77315 10.5477C7.04878 10.3855 7.35273 10.2813 7.66649 10.2394C7.93605 10.2034 8.14151 10.4449 8.1214 10.7161V10.7161C8.10128 10.9873 7.85913 11.1824 7.59764 11.2571C7.48448 11.2894 7.37524 11.3361 7.27268 11.3964C7.02749 11.5407 6.83218 11.7564 6.71285 12.0147C6.59351 12.273 6.55584 12.5615 6.60485 12.8417C6.65387 13.122 6.78725 13.3806 6.98716 13.583C7.18707 13.7854 7.444 13.922 7.72361 13.9745C8.00322 14.0271 8.2922 13.993 8.55193 13.8769C8.81166 13.7608 9.02978 13.5682 9.17713 13.3248C9.30224 13.1182 9.37128 12.8833 9.37856 12.6433C9.38071 12.5724 9.43395 12.5114 9.50474 12.5071L9.60583 12.5008C9.61357 12.5003 9.61971 12.4941 9.62014 12.4864V12.4864C9.6206 12.478 9.62783 12.4716 9.63622 12.4721L9.8539 12.4855L10.3268 12.4564C10.3449 12.4553 10.3605 12.469 10.3613 12.4871V12.4871C10.3621 12.504 10.3754 12.5177 10.3923 12.5187L10.4774 12.524C10.5473 12.5283 10.5999 12.5885 10.6019 12.6585C10.609 12.8991 10.678 13.1345 10.8034 13.3416C10.9508 13.585 11.1689 13.7776 11.4286 13.8937C11.6883 14.0098 11.9773 14.0439 12.2569 13.9914C12.5365 13.9388 12.7935 13.8023 12.9934 13.5998C13.1933 13.3974 13.3267 13.1388 13.3757 12.8586C13.4247 12.5783 13.387 12.2898 13.2677 12.0315C13.1484 11.7732 12.9531 11.5576 12.7079 11.4133C12.6053 11.3529 12.4961 11.3062 12.3829 11.2739C12.1214 11.1992 11.8793 11.0041 11.8592 10.7329V10.7329C11.839 10.4617 12.0445 10.2203 12.3141 10.2562C12.6278 10.2981 12.9318 10.4023 13.2074 10.5645C13.6254 10.8105 13.9583 11.1782 14.1617 11.6184C14.3651 12.0587 14.4294 12.5505 14.3458 13.0282C14.2622 13.5059 14.0349 13.9468 13.6941 14.2919C13.3533 14.6369 12.9154 14.8698 12.4387 14.9593C11.9621 15.0488 11.4695 14.9907 11.0267 14.7928C11.0206 14.7901 11.0146 14.7873 11.0085 14.7846C10.4241 14.5174 9.54051 14.5137 8.95383 14.776V14.776C8.51108 14.9739 8.01847 15.032 7.54183 14.9425C7.06519 14.8529 6.62722 14.6201 6.28645 14.275C5.94567 13.93 5.71831 13.4891 5.63475 13.0114C5.55119 12.5337 5.61542 12.0419 5.81884 11.6016C6.02226 11.1614 6.35519 10.7937 6.77315 10.5477Z" fill="#7C00F8"/>
<path d="M11.1871 11.3157C11.3745 11.3255 11.5196 11.4912 11.4604 11.6693C11.3798 11.912 11.2374 12.1318 11.0448 12.3057C10.7663 12.5571 10.4033 12.6943 10.0282 12.6899C9.6531 12.6855 9.29344 12.5398 9.02101 12.2819C8.74858 12.0239 8.58342 11.6728 8.55848 11.2985C8.53354 10.9242 8.65065 10.5542 8.88646 10.2624C9.12226 9.97065 9.45941 9.77851 9.83063 9.72436C10.2018 9.6702 10.5798 9.75801 10.8892 9.97026C11.0795 10.1008 11.2352 10.2726 11.3462 10.4707C11.4535 10.6623 11.2904 10.8694 11.0708 10.8694V10.8694C10.9109 10.8694 10.7918 10.742 10.6822 10.6256C10.6407 10.5815 10.5867 10.5424 10.5135 10.4922C10.342 10.3745 10.1323 10.3513 9.92647 10.3813C9.72059 10.4114 9.5336 10.5179 9.40283 10.6797C9.27205 10.8416 9.2071 11.0467 9.22093 11.2543C9.23476 11.4619 9.32636 11.6567 9.47745 11.7997C9.62854 11.9428 9.82801 12.0236 10.0361 12.026C10.2441 12.0285 10.4454 11.9524 10.5998 11.813C10.6712 11.7485 10.7301 11.6782 10.7747 11.6007C10.8634 11.4466 11.0096 11.3065 11.1871 11.3157V11.3157Z" fill="#7C00F8"/>
<circle cx="10.0714" cy="11.1996" r="0.445914" fill="#7C00F8"/>
<path d="M9.9724 6.78547H9.42428V5.84413H8.6123V6.78547H8.06104V4.53121H8.6123V5.4261H9.42428V4.53121H9.9724V6.78547Z" fill="#7C00F8"/>
<path d="M12.2591 5.70479C12.2591 5.92464 12.2178 6.11921 12.1351 6.28848C12.0523 6.45776 11.9346 6.58833 11.7817 6.68019C11.6299 6.77102 11.4566 6.81644 11.2618 6.81644C11.0671 6.81644 10.8943 6.77257 10.7435 6.68484C10.5928 6.59607 10.475 6.46963 10.3902 6.30551C10.3064 6.1414 10.2624 5.95303 10.2582 5.7404V5.61344C10.2582 5.39256 10.2991 5.19799 10.3807 5.02975C10.4635 4.86047 10.5813 4.7299 10.7341 4.63804C10.888 4.54618 11.0629 4.50024 11.2587 4.50024C11.4524 4.50024 11.6252 4.54566 11.777 4.63649C11.9288 4.72732 12.0466 4.85686 12.1303 5.0251C12.2152 5.19232 12.2581 5.3843 12.2591 5.60106V5.70479ZM11.6984 5.61034C11.6984 5.38636 11.6602 5.21657 11.5838 5.10097C11.5084 4.98433 11.4 4.92601 11.2587 4.92601C10.9823 4.92601 10.8362 5.13038 10.8205 5.53912L10.8189 5.70479C10.8189 5.92567 10.8561 6.09547 10.9304 6.21417C11.0048 6.33287 11.1152 6.39221 11.2618 6.39221C11.4011 6.39221 11.5084 6.3339 11.5838 6.21726C11.6592 6.10063 11.6974 5.9329 11.6984 5.71408V5.61034Z" fill="#7C00F8"/>
<path d="M17.0711 2.92889C15.1823 1.04018 12.6711 0 10 0C7.32889 0 4.81765 1.04018 2.92894 2.92889C1.04018 4.8177 0 7.3289 0 10C0 14.7123 3.29442 18.7807 7.87111 19.7721L10 22.6106L12.1289 19.772C16.7056 18.7806 20 14.7123 20 10C20 7.3289 18.9598 4.8177 17.0711 2.92889V2.92889ZM10 2.61062C14.0501 2.61062 17.3451 5.90567 17.3451 9.95575C17.3451 14.0058 14.0501 17.3009 10 17.3009C5.94987 17.3009 2.65487 14.0058 2.65487 9.95575C2.65487 5.90567 5.94987 2.61062 10 2.61062V2.61062Z" fill="#7C00F8"/>
</svg>
